<?xml version="1.0" encoding="utf-8"?>
<!-- Generator: Adobe Illustrator 25.2.2, SVG Export Plug-In . SVG Version: 6.00 Build 0)  -->
<svg version="1.1" id="Layer_1" xmlns="http://www.w3.org/2000/svg" xmlns:xlink="http://www.w3.org/1999/xlink" x="0px" y="0px"
	 viewBox="0 0 72.5 60" style="enable-background:new 0 0 72.5 60;" xml:space="preserve">
<style type="text/css">
	.st0{fill:#F5A044;}
	.st1{fill:#FFD63F;}
</style>
<path class="st0" d="M17.2,53.8H8.1c-0.8,0-1.5-0.7-1.5-1.5V37c0-0.8,0.7-1.5,1.5-1.5l0,0h9.1v3H9.6v12.3h7.6V53.8z"/>
<rect x="7.8" y="43.2" class="st0" width="6.5" height="3"/>
<path class="st1" d="M25.2,53.8h-9.1v-3h7.6v-5h-6.2c-0.8,0-1.5-0.7-1.5-1.5l0,0V37c0-0.8,0.7-1.5,1.5-1.5l0,0h8.7v3h-7.2v4.4h6.2
	c0.8,0,1.5,0.7,1.5,1.5l0,0v8C26.7,53.1,26,53.8,25.2,53.8z"/>
</svg>
