<?xml version="1.0" encoding="utf-8"?>
<!-- Generator: Adobe Illustrator 24.1.2, SVG Export Plug-In . SVG Version: 6.00 Build 0)  -->
<svg version="1.1" id="Layer_1" xmlns="http://www.w3.org/2000/svg" xmlns:xlink="http://www.w3.org/1999/xlink" x="0px" y="0px"
	 viewBox="0 0 243.9 60" style="enable-background:new 0 0 243.9 60;" xml:space="preserve">
<style type="text/css">
	.st0{fill:#121A2D;}
	.st1{fill:#F5A044;}
	.st2{fill:#FFD63F;}
	.st3{enable-background:new    ;}
	.st4{font-family:'HelveticaNeue-Bold';}
	.st5{font-size:24px;}
</style>
<rect x="-2.6" y="-2.5" class="st0" width="255.1" height="65"/>
<path class="st0" d="M238.2,60.1H6.4V0h231.8V60.1z M8.9,59.4h226.8V0.7H8.9V59.4z"/>
<path class="st1" d="M34.1,53.8H10.5c-2.1,0-3.8-1.7-3.9-3.8V10.3c0-2.1,1.7-3.8,3.8-3.8c0,0,0,0,0,0h23.7v7.7H14.3v31.9h19.8V53.8z
	"/>
<rect x="9.7" y="26.3" class="st1" width="17" height="7.7"/>
<path class="st2" d="M55,53.8H31.4v-7.7h19.8v-13h-16c-2.1,0-3.9-1.7-3.9-3.9l0,0V10.3c0-2.1,1.7-3.8,3.8-3.8c0,0,0,0,0,0h22.6v7.7
	H39v11.3h16c2.1,0,3.8,1.7,3.8,3.8c0,0,0,0,0,0V50C58.8,52.1,57.1,53.8,55,53.8z"/>
<text transform="matrix(1 0 0 1 72.56 24.98)" class="st3"><tspan x="0" y="0" class="st2 st4 st5">Systems AI </tspan><tspan x="0" y="28.8" class="st2 st4 st5">2020 </tspan></text>
</svg>
