<svg id="Layer_1" data-name="Layer 1" xmlns="http://www.w3.org/2000/svg" viewBox="0 0 818.05 535.44"><defs><style>.cls-1,.cls-11,.cls-13,.cls-19,.cls-3,.cls-5,.cls-7,.cls-9{fill:none;}.cls-1{stroke:#6c4b9f;}.cls-1,.cls-11,.cls-13,.cls-18,.cls-19,.cls-3,.cls-5,.cls-7,.cls-9{stroke-miterlimit:10;}.cls-1,.cls-11,.cls-13,.cls-3,.cls-5,.cls-7,.cls-9{stroke-width:8.5px;}.cls-2{fill:#6c4b9f;}.cls-3{stroke:#d75627;}.cls-4{fill:#d75627;}.cls-5{stroke:#f15a63;}.cls-6{fill:#f15a63;}.cls-7{stroke:#d44a8c;}.cls-8{fill:#d44a8c;}.cls-9{stroke:#f496bf;}.cls-10{fill:#f496bf;}.cls-11{stroke:#f06faa;}.cls-12{fill:#f06faa;}.cls-13{stroke:#b6539f;}.cls-14{fill:#b6539f;}.cls-15,.cls-16,.cls-17{isolation:isolate;}.cls-16,.cls-17{font-size:16px;}.cls-16,.cls-20{font-family:MyriadPro-Bold, Myriad Pro;font-weight:700;}.cls-17{font-family:MyriadPro-Regular, Myriad Pro;}.cls-18{fill:#fff;stroke:#636363;}.cls-18,.cls-19{stroke-width:3px;}.cls-19{stroke:#5e5e5e;}.cls-20{font-size:29px;}</style></defs><path class="cls-1" d="M471.32,194.71c-15.64-12.06-24.21-13-30-14.41-4.55-1.11-19.82-2.32-34.6-1.87-39.38,1.21-71.34-31.94-71.34-71.34A71.34,71.34,0,1,1,451.15,162.9" transform="translate(-15.75 -31.49)"/><polygon class="cls-2" points="456.34 147.61 452.22 160.67 439.97 166.76 470.85 176.6 456.34 147.61"/><path class="cls-3" d="M362.81,198.21c-19.17,4.73-25.25,10.85-29.94,14.49-3.7,2.87-14.15,14.07-23,25.92C286.3,270.19,240.46,274.57,209.63,250a71.34,71.34,0,1,1,115.73-55.8" transform="translate(-15.75 -31.49)"/><polygon class="cls-4" points="335.33 156.4 342.98 167.75 340.12 181.13 367.04 163.09 335.33 156.4"/><path class="cls-5" d="M305.47,281.67c-8.24,17.95-7.23,26.5-7.3,32.44-.06,4.69,2.2,19.84,6,34.14,10,38.1-15.08,76.7-53.47,85.56A71.34,71.34,0,1,1,279,308.47" transform="translate(-15.75 -31.49)"/><polygon class="cls-6" points="274.34 252.93 287.98 254.01 296.68 264.58 299.31 232.28 274.34 252.93"/><path class="cls-7" d="M329.49,384.43c8.92,17.61,16.25,22.15,20.85,25.91,3.63,3,16.89,10.62,30.43,16.58,36.06,15.87,50.64,59.54,33.68,95.1A71.34,71.34,0,1,1,334,421.82" transform="translate(-15.75 -31.49)"/><polygon class="cls-8" points="306.32 366.69 315.66 356.68 329.34 356.45 305.7 334.27 306.32 366.69"/><path class="cls-9" d="M427,422c19.35,4,27.46,1.08,33.26-.18,4.58-1,18.84-6.61,31.92-13.49,34.87-18.35,78.12-2.57,95.4,32.84a71.35,71.35,0,1,1-128.51.58" transform="translate(-15.75 -31.49)"/><polygon class="cls-10" points="417.4 404.88 415.38 391.33 423.72 380.49 391.65 385.19 417.4 404.88"/><path class="cls-11" d="M518.79,376.65C534,364,536.72,355.83,539.34,350.5c2.07-4.2,6.56-18.85,9.32-33.38,7.34-38.71,46.62-62.74,85.09-54.21a71.34,71.34,0,1,1-79.54,100.93" transform="translate(-15.75 -31.49)"/><polygon class="cls-12" points="518.1 349.29 506.25 342.44 502.96 329.16 486.67 357.18 518.1 349.29"/><path class="cls-13" d="M535.62,270.47c-.47-19.75-5.12-27-7.66-32.37-2-4.23-10.68-16.86-20.33-28.06-25.72-29.85-20.07-75.55,10.55-100.34a71.34,71.34,0,1,1,29.47,125.08" transform="translate(-15.75 -31.49)"/><polygon class="cls-14" points="532.49 229.76 519.75 234.77 507.3 229.08 519.09 259.27 532.49 229.76"/><g class="cls-15"><text class="cls-16" transform="translate(363.1 64.55)">Scientifc </text><text class="cls-16" transform="translate(366.96 83.75)">Question</text></g><g class="cls-15"><text class="cls-16" transform="translate(533.51 127.15)">Data </text><text class="cls-16" transform="translate(514.41 146.35)">Acquisition</text></g><g class="cls-15"><text class="cls-16" transform="translate(589.51 299.15)">Data </text><text class="cls-16" transform="translate(568.4 318.35)">Processing</text></g><g class="cls-15"><text class="cls-16" transform="translate(495.51 441.02)">Data </text><text class="cls-16" transform="translate(490.33 460.22)">Mining</text></g><g class="cls-15"><text class="cls-16" transform="translate(318.06 456.02)">Data </text><text class="cls-16" transform="translate(303.41 475.22)">Modelling</text></g><g class="cls-15"><text class="cls-16" transform="translate(206.91 328.02)">Data </text><text class="cls-16" transform="translate(198.03 347.22)">Insights</text></g><g class="cls-15"><text class="cls-16" transform="translate(225.83 155.87)">Data</text><text class="cls-16" transform="translate(190.62 175.07)">Communication</text></g><text class="cls-17" transform="translate(665.35 97.15)">Experiment</text><circle class="cls-18" cx="608.08" cy="92.91" r="8.94"/><line class="cls-19" x1="607.99" y1="101.85" x2="748.05" y2="101.85"/><text class="cls-17" transform="translate(651.44 127.65)">Meta-analysis</text><circle class="cls-18" cx="618.08" cy="123.41" r="8.94"/><line class="cls-19" x1="617.99" y1="132.35" x2="748.05" y2="132.35"/><text class="cls-17" transform="translate(642.06 158.15)">Data collection</text><circle class="cls-18" cx="616.08" cy="153.91" r="8.94"/><line class="cls-19" x1="615.99" y1="162.85" x2="748.05" y2="162.85"/><text class="cls-17" transform="translate(714.04 261.81)">Quality Control</text><circle class="cls-18" cx="661.14" cy="257.57" r="8.94"/><line class="cls-19" x1="660.99" y1="266.51" x2="818.05" y2="266.51"/><text class="cls-17" transform="translate(721.22 292.31)">Data Cleaning</text><circle class="cls-18" cx="675.14" cy="288.07" r="8.94"/><line class="cls-19" x1="674.99" y1="297.01" x2="818.05" y2="297.01"/><text class="cls-17" transform="translate(710.16 322.81)">Standardisation</text><circle class="cls-18" cx="675.14" cy="318.57" r="8.94"/><line class="cls-19" x1="674.99" y1="327.51" x2="818.05" y2="327.51"/><text class="cls-17" transform="translate(637.33 426.47)">Feature creation</text><circle class="cls-18" cx="575.14" cy="422.23" r="8.94"/><line class="cls-19" x1="574.99" y1="431.18" x2="748.05" y2="431.18"/><text class="cls-17" transform="translate(631.72 456.97)">Feature selection</text><circle class="cls-18" cx="579.14" cy="452.73" r="8.94"/><line class="cls-19" x1="578.99" y1="461.68" x2="748.05" y2="461.68"/><text class="cls-17" transform="translate(604.71 487.47)">Dimension reduction</text><circle class="cls-18" cx="568.14" cy="483.23" r="8.94"/><line class="cls-19" x1="567.99" y1="492.18" x2="748.05" y2="492.18"/><text class="cls-17" transform="translate(112.54 446.03)">Model evaluation</text><circle class="cls-18" cx="266.54" cy="441.79" r="8.94"/><line class="cls-19" x1="266.68" y1="450.73" x2="113.63" y2="450.73"/><text class="cls-17" transform="translate(112.54 476.53)">Model comparison</text><circle class="cls-18" cx="264.54" cy="472.29" r="8.94"/><line class="cls-19" x1="264.68" y1="481.23" x2="113.63" y2="481.23"/><text class="cls-17" transform="translate(112.54 507.03)">Model reduction</text><circle class="cls-18" cx="275.54" cy="502.79" r="8.94"/><line class="cls-19" x1="275.68" y1="511.73" x2="113.63" y2="511.73"/><text class="cls-17" transform="translate(0 296.55)">Data visualisation</text><circle class="cls-18" cx="158" cy="292.31" r="8.94"/><line class="cls-19" x1="158.14" y1="301.26" x2="1.08" y2="301.26"/><text class="cls-17" transform="translate(0 327.05)">Data Summary</text><circle class="cls-18" cx="147" cy="322.81" r="8.94"/><line class="cls-19" x1="147.14" y1="331.76" x2="1.08" y2="331.76"/><text class="cls-17" transform="translate(0 357.55)">Data interpretation</text><circle class="cls-18" cx="151" cy="353.31" r="8.94"/><line class="cls-19" x1="151.14" y1="362.26" x2="1.08" y2="362.26"/><text class="cls-17" transform="translate(15 131.89)">Reproducible Report</text><circle class="cls-18" cx="173" cy="127.65" r="8.94"/><line class="cls-19" x1="173.14" y1="136.59" x2="16.08" y2="136.59"/><text class="cls-17" transform="translate(15 162.39)">Article</text><circle class="cls-18" cx="165" cy="158.15" r="8.94"/><line class="cls-19" x1="165.14" y1="167.09" x2="16.08" y2="167.09"/><text class="cls-17" transform="translate(15 192.89)">Online repository</text><circle class="cls-18" cx="170" cy="188.65" r="8.94"/><line class="cls-19" x1="170.14" y1="197.59" x2="16.08" y2="197.59"/><text class="cls-17" transform="translate(171.13 22.39)">Confrmatory</text><circle class="cls-18" cx="343.13" cy="18.15" r="8.94"/><line class="cls-19" x1="343.27" y1="27.09" x2="172.21" y2="27.09"/><text class="cls-17" transform="translate(171.13 52.89)">Exploratory</text><circle class="cls-18" cx="322.13" cy="48.65" r="8.94"/><line class="cls-19" x1="322.27" y1="57.59" x2="172.21" y2="57.59"/><text class="cls-20" transform="translate(346.81 232.28)">The data <tspan x="9.02" y="34.8">science </tspan><tspan x="-6.9" y="69.6">analytical </tspan><tspan x="26.64" y="104.4">cycle</tspan></text><text class="cls-17" transform="translate(714.61 351.64)">Data analysis</text><circle class="cls-18" cx="657.77" cy="347.4" r="8.94"/><line class="cls-19" x1="657.62" y1="356.34" x2="800.68" y2="356.34"/></svg>